<svg width="40" height="40" viewBox="0 0 40 40" fill="none" xmlns="http://www.w3.org/2000/svg">
<circle cx="20" cy="20" r="20" fill="#0083FC" fill-opacity="0.08"/>
<path d="M25.5219 26.2719C24.5779 27.2154 23.3753 27.858 22.0663 28.1182C20.7572 28.3785 19.4003 28.2448 18.1672 27.7341C16.9341 27.2234 15.88 26.3586 15.1383 25.249C14.3965 24.1393 14.0004 22.8347 14 21.5V18.5C14.0004 17.1653 14.3965 15.8607 15.1383 14.7511C15.88 13.6414 16.9341 12.7766 18.1672 12.2659C19.4003 11.7552 20.7572 11.6215 22.0663 11.8818C23.3753 12.142 24.5779 12.7846 25.5219 13.7281" stroke="#0083FC" stroke-width="2" stroke-linecap="round" stroke-linejoin="round"/>
<path d="M11.75 18.5H20.75" stroke="#0083FC" stroke-width="2" stroke-linecap="round" stroke-linejoin="round"/>
<path d="M11.75 21.5H19.25" stroke="#0083FC" stroke-width="2" stroke-linecap="round" stroke-linejoin="round"/>
</svg>
