<svg width="40" height="40" viewBox="0 0 40 40" fill="none" xmlns="http://www.w3.org/2000/svg">
<circle cx="20" cy="20" r="20" fill="#D6A015" fill-opacity="0.11"/>
<path d="M27.875 27.125C26.4253 27.125 25.25 25.9497 25.25 24.5C25.25 23.0503 26.4253 21.875 27.875 21.875C29.3247 21.875 30.5 23.0503 30.5 24.5C30.5 25.9497 29.3247 27.125 27.875 27.125Z" stroke="#D6A015" stroke-width="2" stroke-linecap="round" stroke-linejoin="round"/>
<path d="M13.25 11.75L9.5 15.5L13.25 19.25" stroke="#D6A015" stroke-width="2" stroke-linecap="round" stroke-linejoin="round"/>
<path d="M25.25 24.5H24.5C23.3065 24.5 22.1619 24.0259 21.318 23.182C20.4741 22.3381 20 21.1935 20 20C20 18.8065 19.5259 17.6619 18.682 16.818C17.8381 15.9741 16.6935 15.5 15.5 15.5H9.5" stroke="#D6A015" stroke-width="2" stroke-linecap="round" stroke-linejoin="round"/>
</svg>
