<svg width="220" height="220" viewBox="0 0 220 220" fill="none" xmlns="http://www.w3.org/2000/svg">
<path d="M110 0C127.359 2.07006e-07 144.472 4.1084 159.939 11.9893C175.406 19.8702 188.788 31.2998 198.992 45.3436C209.195 59.3875 215.93 75.6468 218.646 92.7922C221.361 109.938 219.98 127.482 214.616 143.992L193.693 137.193C197.984 123.986 199.089 109.95 196.917 96.2338C194.744 82.5174 189.356 69.51 181.193 58.2749C173.031 47.0398 162.325 37.8961 149.951 31.5914C137.577 25.2867 123.887 22 110 22V0Z" fill="#165DFF"/>
<path d="M214.614 143.998C207.434 166.091 193.445 185.343 174.651 198.996C155.857 212.649 133.223 220.001 109.993 220L109.995 198C128.578 198.001 146.686 192.119 161.721 181.197C176.756 170.274 187.948 154.872 193.691 137.199L214.614 143.998Z" fill="#50CD89"/>
<path d="M110 220C86.7703 220 64.1368 212.646 45.3436 198.992C26.5504 185.338 12.5621 166.085 5.38377 143.992L26.307 137.193C32.0497 154.868 43.2403 170.27 58.2749 181.193C73.3095 192.117 91.4162 198 110 198V220Z" fill="#FFC700"/>
<path d="M5.42582 144.121C-1.77982 122.037 -1.8092 98.2389 5.34191 76.1373L26.2735 82.9098C20.5526 100.591 20.5761 119.63 26.3407 137.297L5.42582 144.121Z" fill="#7239EA"/>
<path d="M5.35849 76.0861C12.5204 53.988 26.4943 34.7244 45.2774 21.0563L58.2219 38.845C43.1954 49.7795 32.0163 65.1904 26.2868 82.8689L5.35849 76.0861Z" fill="#0FC6C2"/>
<path d="M45.2608 21.0684C64.0413 7.39679 86.6679 0.0216804 109.898 4.76976e-05L109.918 22C91.3343 22.0173 73.233 27.9174 58.2086 38.8547L45.2608 21.0684Z" fill="#B5BDCB"/>
<path d="M97.0234 83.625V95H95.5391V83.625H97.0234ZM100.68 83.625V84.8594H91.8906V83.625H100.68ZM100.984 90.8672V90.6875C100.984 90.0781 101.073 89.513 101.25 88.9922C101.427 88.4661 101.682 88.0104 102.016 87.625C102.349 87.2344 102.753 86.9323 103.227 86.7188C103.701 86.5 104.232 86.3906 104.82 86.3906C105.414 86.3906 105.948 86.5 106.422 86.7188C106.901 86.9323 107.307 87.2344 107.641 87.625C107.979 88.0104 108.237 88.4661 108.414 88.9922C108.591 89.513 108.68 90.0781 108.68 90.6875V90.8672C108.68 91.4766 108.591 92.0417 108.414 92.5625C108.237 93.0833 107.979 93.5391 107.641 93.9297C107.307 94.3151 106.904 94.6172 106.43 94.8359C105.961 95.0495 105.43 95.1562 104.836 95.1562C104.242 95.1562 103.708 95.0495 103.234 94.8359C102.76 94.6172 102.354 94.3151 102.016 93.9297C101.682 93.5391 101.427 93.0833 101.25 92.5625C101.073 92.0417 100.984 91.4766 100.984 90.8672ZM102.43 90.6875V90.8672C102.43 91.2891 102.479 91.6875 102.578 92.0625C102.677 92.4323 102.826 92.7604 103.023 93.0469C103.227 93.3333 103.479 93.5599 103.781 93.7266C104.083 93.888 104.435 93.9688 104.836 93.9688C105.232 93.9688 105.578 93.888 105.875 93.7266C106.177 93.5599 106.427 93.3333 106.625 93.0469C106.823 92.7604 106.971 92.4323 107.07 92.0625C107.174 91.6875 107.227 91.2891 107.227 90.8672V90.6875C107.227 90.2708 107.174 89.8776 107.07 89.5078C106.971 89.1328 106.82 88.8021 106.617 88.5156C106.419 88.224 106.169 87.9948 105.867 87.8281C105.57 87.6615 105.221 87.5781 104.82 87.5781C104.424 87.5781 104.076 87.6615 103.773 87.8281C103.477 87.9948 103.227 88.224 103.023 88.5156C102.826 88.8021 102.677 89.1328 102.578 89.5078C102.479 89.8776 102.43 90.2708 102.43 90.6875ZM114.031 86.5469V87.6562H109.461V86.5469H114.031ZM111.008 84.4922H112.453V92.9062C112.453 93.1927 112.497 93.4089 112.586 93.5547C112.674 93.7005 112.789 93.7969 112.93 93.8438C113.07 93.8906 113.221 93.9141 113.383 93.9141C113.503 93.9141 113.628 93.9036 113.758 93.8828C113.893 93.8568 113.995 93.8359 114.062 93.8203L114.07 95C113.956 95.0365 113.805 95.0703 113.617 95.1016C113.435 95.138 113.214 95.1562 112.953 95.1562C112.599 95.1562 112.273 95.0859 111.977 94.9453C111.68 94.8047 111.443 94.5703 111.266 94.2422C111.094 93.9089 111.008 93.4609 111.008 92.8984V84.4922ZM120.711 93.5547V89.2031C120.711 88.8698 120.643 88.5807 120.508 88.3359C120.378 88.0859 120.18 87.8932 119.914 87.7578C119.648 87.6224 119.32 87.5547 118.93 87.5547C118.565 87.5547 118.245 87.6172 117.969 87.7422C117.698 87.8672 117.484 88.0312 117.328 88.2344C117.177 88.4375 117.102 88.6562 117.102 88.8906H115.656C115.656 88.5885 115.734 88.2891 115.891 87.9922C116.047 87.6953 116.271 87.4271 116.562 87.1875C116.859 86.9427 117.214 86.75 117.625 86.6094C118.042 86.4635 118.505 86.3906 119.016 86.3906C119.63 86.3906 120.172 86.4948 120.641 86.7031C121.115 86.9115 121.484 87.2266 121.75 87.6484C122.021 88.0651 122.156 88.5885 122.156 89.2188V93.1562C122.156 93.4375 122.18 93.737 122.227 94.0547C122.279 94.3724 122.354 94.6458 122.453 94.875V95H120.945C120.872 94.8333 120.815 94.612 120.773 94.3359C120.732 94.0547 120.711 93.7943 120.711 93.5547ZM120.961 89.875L120.977 90.8906H119.516C119.104 90.8906 118.737 90.9245 118.414 90.9922C118.091 91.0547 117.82 91.151 117.602 91.2812C117.383 91.4115 117.216 91.5755 117.102 91.7734C116.987 91.9661 116.93 92.1927 116.93 92.4531C116.93 92.7188 116.99 92.9609 117.109 93.1797C117.229 93.3984 117.409 93.5729 117.648 93.7031C117.893 93.8281 118.193 93.8906 118.547 93.8906C118.99 93.8906 119.38 93.7969 119.719 93.6094C120.057 93.4219 120.326 93.1927 120.523 92.9219C120.727 92.651 120.836 92.388 120.852 92.1328L121.469 92.8281C121.432 93.0469 121.333 93.2891 121.172 93.5547C121.01 93.8203 120.794 94.0755 120.523 94.3203C120.258 94.5599 119.94 94.7604 119.57 94.9219C119.206 95.0781 118.794 95.1562 118.336 95.1562C117.763 95.1562 117.26 95.0443 116.828 94.8203C116.401 94.5964 116.068 94.2969 115.828 93.9219C115.594 93.5417 115.477 93.1172 115.477 92.6484C115.477 92.1953 115.565 91.7969 115.742 91.4531C115.919 91.1042 116.174 90.8151 116.508 90.5859C116.841 90.3516 117.242 90.1745 117.711 90.0547C118.18 89.9349 118.703 89.875 119.281 89.875H120.961ZM126 83V95H124.547V83H126Z" fill="#616683"/>
<path d="M63.9688 127.672C64.4896 127.672 64.9948 127.63 65.4844 127.547C65.9844 127.464 66.4583 127.339 66.9062 127.172L67.4688 130.828C66.8542 130.974 66.2083 131.089 65.5312 131.172C64.8542 131.255 64.1667 131.297 63.4688 131.297C62.1562 131.297 60.9479 131.115 59.8438 130.75C58.7396 130.385 57.7812 129.839 56.9688 129.109C56.1667 128.37 55.5417 127.458 55.0938 126.375C54.6458 125.281 54.4219 124.005 54.4219 122.547V117.156C54.4219 115.635 54.6458 114.302 55.0938 113.156C55.5521 112.01 56.1979 111.052 57.0312 110.281C57.8646 109.51 58.8542 108.932 60 108.547C61.1458 108.151 62.4167 107.953 63.8125 107.953C64.4271 107.953 65.0365 108 65.6406 108.094C66.2552 108.177 66.8646 108.292 67.4688 108.438L66.9062 112.109C66.5 111.953 66.0417 111.828 65.5312 111.734C65.0312 111.641 64.5365 111.594 64.0469 111.594C63.276 111.594 62.5833 111.703 61.9688 111.922C61.3542 112.13 60.8333 112.458 60.4062 112.906C59.9896 113.344 59.6719 113.911 59.4531 114.609C59.2344 115.307 59.125 116.146 59.125 117.125V122.547C59.125 123.505 59.2396 124.318 59.4688 124.984C59.6979 125.641 60.026 126.167 60.4531 126.562C60.8802 126.948 61.3906 127.229 61.9844 127.406C62.5781 127.583 63.2396 127.672 63.9688 127.672ZM64.3438 116.281V118.594H51.7812V116.281H64.3438ZM64.3438 120.578V122.891H51.7812V120.578H64.3438ZM80.7656 108.172V131H77V112.641L71.4219 114.531V111.422L80.3125 108.172H80.7656ZM100.047 108.109H100.516V111.188H100.25C98.9062 111.188 97.7448 111.396 96.7656 111.812C95.7969 112.229 95 112.802 94.375 113.531C93.75 114.26 93.2812 115.115 92.9688 116.094C92.6667 117.062 92.5156 118.094 92.5156 119.188V122.766C92.5156 123.672 92.6146 124.474 92.8125 125.172C93.0104 125.859 93.2865 126.438 93.6406 126.906C94.0052 127.365 94.4219 127.714 94.8906 127.953C95.3594 128.193 95.8646 128.312 96.4062 128.312C96.9688 128.312 97.4792 128.198 97.9375 127.969C98.3958 127.729 98.7865 127.401 99.1094 126.984C99.4323 126.568 99.6771 126.073 99.8438 125.5C100.01 124.927 100.094 124.302 100.094 123.625C100.094 122.979 100.01 122.375 99.8438 121.812C99.6875 121.24 99.4531 120.74 99.1406 120.312C98.8281 119.875 98.4375 119.536 97.9688 119.297C97.5104 119.047 96.9792 118.922 96.375 118.922C95.625 118.922 94.9427 119.099 94.3281 119.453C93.724 119.807 93.2344 120.271 92.8594 120.844C92.4948 121.406 92.2969 122.005 92.2656 122.641L90.8281 122.172C90.9115 121.203 91.125 120.333 91.4688 119.562C91.8229 118.792 92.2865 118.135 92.8594 117.594C93.4323 117.052 94.0938 116.641 94.8438 116.359C95.6042 116.068 96.4375 115.922 97.3438 115.922C98.4479 115.922 99.4062 116.13 100.219 116.547C101.031 116.964 101.703 117.531 102.234 118.25C102.776 118.958 103.177 119.771 103.438 120.688C103.708 121.594 103.844 122.542 103.844 123.531C103.844 124.625 103.677 125.646 103.344 126.594C103.01 127.531 102.521 128.354 101.875 129.062C101.24 129.771 100.464 130.323 99.5469 130.719C98.6406 131.115 97.6094 131.312 96.4531 131.312C95.2344 131.312 94.1458 131.078 93.1875 130.609C92.2396 130.141 91.4323 129.495 90.7656 128.672C90.1094 127.849 89.6094 126.901 89.2656 125.828C88.9219 124.755 88.75 123.62 88.75 122.422V120.859C88.75 119.13 88.9688 117.5 89.4062 115.969C89.8438 114.427 90.5156 113.068 91.4219 111.891C92.3385 110.714 93.5104 109.792 94.9375 109.125C96.3646 108.448 98.0677 108.109 100.047 108.109ZM121.688 117.719V121.438C121.688 123.219 121.51 124.74 121.156 126C120.812 127.25 120.312 128.266 119.656 129.047C119 129.828 118.214 130.401 117.297 130.766C116.391 131.13 115.375 131.312 114.25 131.312C113.354 131.312 112.521 131.198 111.75 130.969C110.99 130.74 110.302 130.38 109.688 129.891C109.073 129.401 108.547 128.771 108.109 128C107.682 127.219 107.349 126.286 107.109 125.203C106.88 124.12 106.766 122.865 106.766 121.438V117.719C106.766 115.927 106.943 114.417 107.297 113.188C107.651 111.948 108.156 110.943 108.812 110.172C109.469 109.391 110.25 108.823 111.156 108.469C112.073 108.115 113.094 107.938 114.219 107.938C115.125 107.938 115.958 108.052 116.719 108.281C117.49 108.5 118.177 108.849 118.781 109.328C119.396 109.807 119.917 110.432 120.344 111.203C120.781 111.964 121.115 112.885 121.344 113.969C121.573 115.042 121.688 116.292 121.688 117.719ZM117.922 121.969V117.156C117.922 116.25 117.87 115.453 117.766 114.766C117.661 114.068 117.505 113.479 117.297 113C117.099 112.51 116.849 112.115 116.547 111.812C116.245 111.5 115.901 111.276 115.516 111.141C115.13 110.995 114.698 110.922 114.219 110.922C113.635 110.922 113.115 111.036 112.656 111.266C112.198 111.484 111.812 111.839 111.5 112.328C111.188 112.818 110.948 113.464 110.781 114.266C110.625 115.057 110.547 116.021 110.547 117.156V121.969C110.547 122.885 110.599 123.693 110.703 124.391C110.807 125.089 110.964 125.688 111.172 126.188C111.38 126.677 111.63 127.083 111.922 127.406C112.224 127.719 112.568 127.948 112.953 128.094C113.349 128.24 113.781 128.312 114.25 128.312C114.844 128.312 115.37 128.198 115.828 127.969C116.286 127.74 116.672 127.375 116.984 126.875C117.297 126.365 117.531 125.703 117.688 124.891C117.844 124.078 117.922 123.104 117.922 121.969ZM125.422 129.125C125.422 128.542 125.62 128.052 126.016 127.656C126.411 127.25 126.948 127.047 127.625 127.047C128.312 127.047 128.849 127.25 129.234 127.656C129.63 128.052 129.828 128.542 129.828 129.125C129.828 129.708 129.63 130.198 129.234 130.594C128.849 130.99 128.312 131.188 127.625 131.188C126.948 131.188 126.411 130.99 126.016 130.594C125.62 130.198 125.422 129.708 125.422 129.125ZM148.781 117.719V121.438C148.781 123.219 148.604 124.74 148.25 126C147.906 127.25 147.406 128.266 146.75 129.047C146.094 129.828 145.307 130.401 144.391 130.766C143.484 131.13 142.469 131.312 141.344 131.312C140.448 131.312 139.615 131.198 138.844 130.969C138.083 130.74 137.396 130.38 136.781 129.891C136.167 129.401 135.641 128.771 135.203 128C134.776 127.219 134.443 126.286 134.203 125.203C133.974 124.12 133.859 122.865 133.859 121.438V117.719C133.859 115.927 134.036 114.417 134.391 113.188C134.745 111.948 135.25 110.943 135.906 110.172C136.562 109.391 137.344 108.823 138.25 108.469C139.167 108.115 140.188 107.938 141.312 107.938C142.219 107.938 143.052 108.052 143.812 108.281C144.583 108.5 145.271 108.849 145.875 109.328C146.49 109.807 147.01 110.432 147.438 111.203C147.875 111.964 148.208 112.885 148.438 113.969C148.667 115.042 148.781 116.292 148.781 117.719ZM145.016 121.969V117.156C145.016 116.25 144.964 115.453 144.859 114.766C144.755 114.068 144.599 113.479 144.391 113C144.193 112.51 143.943 112.115 143.641 111.812C143.339 111.5 142.995 111.276 142.609 111.141C142.224 110.995 141.792 110.922 141.312 110.922C140.729 110.922 140.208 111.036 139.75 111.266C139.292 111.484 138.906 111.839 138.594 112.328C138.281 112.818 138.042 113.464 137.875 114.266C137.719 115.057 137.641 116.021 137.641 117.156V121.969C137.641 122.885 137.693 123.693 137.797 124.391C137.901 125.089 138.057 125.688 138.266 126.188C138.474 126.677 138.724 127.083 139.016 127.406C139.318 127.719 139.661 127.948 140.047 128.094C140.443 128.24 140.875 128.312 141.344 128.312C141.938 128.312 142.464 128.198 142.922 127.969C143.38 127.74 143.766 127.375 144.078 126.875C144.391 126.365 144.625 125.703 144.781 124.891C144.938 124.078 145.016 123.104 145.016 121.969ZM167.812 122.891V125.891H151.406L151.281 123.625L161.094 108.25H164.109L160.844 113.844L155.203 122.891H167.812ZM164.969 108.25V131H161.203V108.25H164.969Z" fill="#1D2129"/>
</svg>
