<svg width="43" height="32" viewBox="0 0 43 32" fill="none" xmlns="http://www.w3.org/2000/svg">
<rect width="43" height="32" rx="6" fill="#AEAEAE" fill-opacity="0.08"/>
<path d="M17.1875 16H25.8125" stroke="#0083FC" stroke-width="2" stroke-linecap="round" stroke-linejoin="round"/>
<path d="M19.3438 20.3125H15.75C14.6063 20.3125 13.5094 19.8581 12.7006 19.0494C11.8919 18.2406 11.4375 17.1437 11.4375 16C11.4375 14.8562 11.8919 13.7593 12.7006 12.9506C13.5094 12.1418 14.6063 11.6875 15.75 11.6875H19.3438" stroke="#0083FC" stroke-width="2" stroke-linecap="round" stroke-linejoin="round"/>
<path d="M23.6562 20.3125H27.25C28.3937 20.3125 29.4906 19.8581 30.2994 19.0494C31.1081 18.2406 31.5625 17.1437 31.5625 16C31.5625 14.8562 31.1081 13.7593 30.2994 12.9506C29.4906 12.1418 28.3937 11.6875 27.25 11.6875H23.6562" stroke="#0083FC" stroke-width="2" stroke-linecap="round" stroke-linejoin="round"/>
</svg>
