<svg width="44" height="44" viewBox="0 0 44 44" fill="none" xmlns="http://www.w3.org/2000/svg">
<rect x="0.5" y="0.5" width="43" height="43" rx="3.5" fill="white" stroke="#E9F2FB"/>
<path d="M34.8338 13.8339C35.1432 13.8339 35.4399 13.711 35.6587 13.4922C35.8775 13.2734 36.0004 12.9767 36.0004 12.6673V9.16746C36.0004 8.85805 35.8775 8.56132 35.6587 8.34254C35.4399 8.12376 35.1432 8.00085 34.8338 8.00085H31.334C31.0246 8.00085 30.7279 8.12376 30.5091 8.34254C30.2903 8.56132 30.1674 8.85805 30.1674 9.16746V10.3341H13.835V9.16746C13.835 8.85805 13.7121 8.56132 13.4933 8.34254C13.2745 8.12376 12.9778 8.00085 12.6684 8.00085H9.16855C8.85915 8.00085 8.56242 8.12376 8.34364 8.34254C8.12486 8.56132 8.00195 8.85805 8.00195 9.16746V12.6673C8.00195 12.9767 8.12486 13.2734 8.34364 13.4922C8.56242 13.711 8.85915 13.8339 9.16855 13.8339H10.3352V30.1663H9.16855C8.85915 30.1663 8.56242 30.2892 8.34364 30.508C8.12486 30.7268 8.00195 31.0235 8.00195 31.3329V34.8327C8.00195 35.1421 8.12486 35.4388 8.34364 35.6576C8.56242 35.8764 8.85915 35.9993 9.16855 35.9993H12.6684C12.9778 35.9993 13.2745 35.8764 13.4933 35.6576C13.7121 35.4388 13.835 35.1421 13.835 34.8327V33.6661H30.1674V34.8327C30.1674 35.1421 30.2903 35.4388 30.5091 35.6576C30.7279 35.8764 31.0246 35.9993 31.334 35.9993H34.8338C35.1432 35.9993 35.4399 35.8764 35.6587 35.6576C35.8775 35.4388 36.0004 35.1421 36.0004 34.8327V31.3329C36.0004 31.0235 35.8775 30.7268 35.6587 30.508C35.4399 30.2892 35.1432 30.1663 34.8338 30.1663H33.6672V13.8339H34.8338ZM9.16855 12.6673V9.16746H12.6684V12.6673H9.16855ZM12.6684 34.8327H9.16855V31.3329H12.6684V34.8327ZM30.1674 31.3329V32.4995H13.835V31.3329C13.835 31.0235 13.7121 30.7268 13.4933 30.508C13.2745 30.2892 12.9778 30.1663 12.6684 30.1663H11.5018V13.8339H12.6684C12.9778 13.8339 13.2745 13.711 13.4933 13.4922C13.7121 13.2734 13.835 12.9767 13.835 12.6673V11.5007H30.1674V12.6673C30.1674 12.9767 30.2903 13.2734 30.5091 13.4922C30.7279 13.711 31.0246 13.8339 31.334 13.8339H32.5006V30.1663H31.334C31.0246 30.1663 30.7279 30.2892 30.5091 30.508C30.2903 30.7268 30.1674 31.0235 30.1674 31.3329ZM34.8338 31.3329V34.8327H31.334V31.3329H34.8338ZM31.334 12.6673V9.16746H34.8338V12.6673H31.334Z" fill="#0083FC"/>
</svg>
